<svg width="800" height="800" viewBox="0 0 1024 1024" class="icon" xmlns="http://www.w3.org/2000/svg"><path d="M488.006 999.898C218.982 999.898.106 781.022.106 512c0-269.022 218.876-487.898 487.9-487.898 156.624 0 304.81 76.03 396.386 203.364a8.016 8.016 0 0 1-1.828 11.17c-3.61 2.562-8.592 1.766-11.17-1.828C782.818 113.63 639.49 40.1 488.006 40.1 227.792 40.098 16.104 251.788 16.104 512c0 260.21 211.69 471.902 471.902 471.902 260.21 0 471.902-211.692 471.902-471.902a7.992 7.992 0 0 1 7.998-7.998 7.994 7.994 0 0 1 7.998 7.998c0 269.022-218.876 487.898-487.898 487.898z"/><path d="M1015.896 567.988a7.976 7.976 0 0 1-5.656-2.344l-47.99-47.99a7.996 7.996 0 1 1 11.31-11.31l47.99 47.992a7.994 7.994 0 0 1 0 11.308 7.96 7.96 0 0 1-5.654 2.344z"/><path d="M919.916 567.988a7.994 7.994 0 0 1-5.656-13.652l47.99-47.992a7.996 7.996 0 1 1 11.31 11.31l-47.99 47.99a7.96 7.96 0 0 1-5.654 2.344zm-191.96 167.966H280.048c-4.422 0-8-3.578-8-7.998V376.028a7.994 7.994 0 0 1 8-7.998h447.906c4.422 0 8 3.578 8 7.998v351.928a7.994 7.994 0 0 1-7.998 7.998zm-439.91-15.996h431.91V384.026h-431.91v335.932z"/><path d="M727.956 384.026H280.048a8.002 8.002 0 0 1-7.39-4.936 8.018 8.018 0 0 1 1.734-8.716l63.988-63.986a7.992 7.992 0 0 1 5.656-2.344H663.97c2.124 0 4.154.844 5.654 2.344l63.988 63.986a8.02 8.02 0 0 1 1.734 8.716 8.002 8.002 0 0 1-7.39 4.936zM299.358 368.03h409.29l-47.99-47.99H347.346l-47.988 47.99z"/><path d="M456.012 384.026a8.008 8.008 0 0 1-7.156-11.576l31.994-63.988c2-3.936 6.78-5.546 10.732-3.578a8.006 8.006 0 0 1 3.578 10.732l-31.994 63.986a8.014 8.014 0 0 1-7.154 4.424zm95.98 0a8.016 8.016 0 0 1-7.154-4.42l-31.994-63.986a8.006 8.006 0 0 1 3.578-10.732 7.992 7.992 0 0 1 10.732 3.578l31.992 63.988a8.006 8.006 0 0 1-3.578 10.732 7.992 7.992 0 0 1-3.576.84z"/><path d="M456.012 448.014a7.994 7.994 0 0 1-7.998-8v-63.988c0-4.42 3.578-7.998 7.998-7.998s7.998 3.578 7.998 7.998v63.988c0 4.422-3.578 8-7.998 8z"/><path d="M551.992 448.014h-95.98c-4.42 0-7.998-3.578-7.998-8s3.578-7.998 7.998-7.998h95.98c4.42 0 7.998 3.578 7.998 7.998s-3.578 8-7.998 8z"/><path d="M551.992 448.014a7.994 7.994 0 0 1-7.998-8v-63.988a7.994 7.994 0 0 1 7.998-7.998 7.994 7.994 0 0 1 7.998 7.998v63.988c0 4.422-3.578 8-7.998 8zm-95.98 7.998a7.994 7.994 0 0 1-7.998-7.998v-8c0-4.42 3.578-7.998 7.998-7.998s7.998 3.578 7.998 7.998v8a7.994 7.994 0 0 1-7.998 7.998zm31.994 0c-4.422 0-8-3.578-8-7.998v-8a7.994 7.994 0 0 1 8-7.998 7.994 7.994 0 0 1 7.998 7.998v8a7.994 7.994 0 0 1-7.998 7.998zm31.992 0a7.994 7.994 0 0 1-7.998-7.998v-8a7.994 7.994 0 0 1 7.998-7.998c4.422 0 8 3.578 8 7.998v8a7.994 7.994 0 0 1-8 7.998z"/><path d="M551.992 456.012a7.994 7.994 0 0 1-7.998-7.998v-8a7.994 7.994 0 0 1 7.998-7.998 7.994 7.994 0 0 1 7.998 7.998v8a7.994 7.994 0 0 1-7.998 7.998zm143.97 247.948h-31.994a7.994 7.994 0 0 1-7.998-8v-31.992c0-4.422 3.578-8 7.998-8h31.994a7.994 7.994 0 0 1 7.998 8v31.992c0 4.422-3.578 8-7.998 8zm-23.996-15.998h15.996v-15.996h-15.996v15.996zm-39.992 15.998h-31.992a7.994 7.994 0 0 1-7.998-8v-31.992c0-4.422 3.576-8 7.998-8h31.992c4.422 0 8 3.578 8 8v31.992c0 4.422-3.578 8-8 8zm-23.994-15.998h15.996v-15.996H607.98v15.996zm-135.972-15.996H312.04a7.994 7.994 0 0 1-7.998-7.998c0-4.422 3.578-8 7.998-8h159.968a7.994 7.994 0 0 1 7.998 8 7.994 7.994 0 0 1-7.998 7.998zm-79.982 31.994h-79.984a7.994 7.994 0 0 1-7.998-8 7.994 7.994 0 0 1 7.998-7.998h79.984a7.994 7.994 0 0 1 7.998 7.998c0 4.422-3.578 8-7.998 8z"/></svg>